<?xml version="1.0" encoding="UTF-8" standalone="no"?>
<!-- Created with Inkscape (http://www.inkscape.org/) -->

<svg
   width="297mm"
   height="210mm"
   viewBox="0 0 297 210"
   version="1.1"
   id="svg1"
   xml:space="preserve"
   xmlns="http://www.w3.org/2000/svg"
   xmlns:svg="http://www.w3.org/2000/svg"><defs
     id="defs1" /><g
     id="layer1"><path
       style="fill:#1a1a1a;stroke-width:0.680084"
       d="m 109.88211,90.679113 c -2.26093,-0.53026 -4.77122,-2.549432 -5.80959,-4.672987 -2.80971,-5.746096 0.99831,-12.337889 7.3452,-12.714776 1.88391,-0.111869 3.05596,0.135122 4.70778,0.992091 3.86096,2.003075 5.66642,6.503927 4.25482,10.606834 -1.21973,3.545207 -4.70936,6.020878 -8.41812,5.972148 -0.75657,-0.01 -1.69261,-0.0924 -2.08009,-0.18331 z m 3.72743,-5.127861 c 2.17344,-1.098135 2.85286,-3.839524 1.45241,-5.860374 -0.54701,-0.789327 -2.01145,-1.586044 -2.91531,-1.586044 -2.84807,0 -4.81347,2.954273 -3.65111,5.488137 0.39467,0.860368 1.16995,1.670563 1.91116,1.997236 0.75934,0.334666 2.5054,0.313429 3.20285,-0.03896 z"
       id="path27" /><path
       style="fill:#1a1a1a;stroke-width:0.680084"
       d="m 87.209804,90.688853 c -1.382421,-0.343333 -3.057427,-1.320861 -4.178192,-2.438369 -2.20359,-2.197188 -3.040739,-5.219628 -2.307418,-8.330672 0.375816,-1.594371 1.063075,-2.790647 2.333526,-4.061835 5.093545,-5.096493 13.768359,-2.325217 15.042699,4.805576 0.72087,4.033752 -1.78532,8.286822 -5.7266,9.718207 -1.182333,0.429393 -3.997501,0.596813 -5.164015,0.307093 z m 2.953755,-4.860269 c 1.88046,-0.429086 2.963575,-1.808717 2.966962,-3.779205 0.0027,-1.612889 -0.656274,-2.714087 -2.070047,-3.45885 -0.836864,-0.440854 -1.129994,-0.505635 -1.928324,-0.426155 -1.783759,0.177589 -3.037902,1.273573 -3.475774,3.037463 -0.562443,2.265672 1.040583,4.397489 3.607486,4.797493 0.04951,0.0077 0.454351,-0.06912 0.899697,-0.170746 z"
       id="path26" /><path
       style="fill:#1a1a1a;stroke-width:0.680084"
       d="M 64.03601,90.533073 C 61.98158,89.876189 60.336641,88.626601 59.180891,86.84485 56.883845,83.303634 57.4377,78.510271 60.467124,75.713085 c 1.818292,-1.6789 3.807079,-2.468512 6.207223,-2.464466 4.341875,0.0073 7.977647,3.07204 8.746174,7.372458 0.292518,1.636831 0.03447,3.470212 -0.723804,5.142558 -0.634399,1.399136 -2.466877,3.320473 -3.890066,4.078699 -1.969021,1.049029 -4.75966,1.333729 -6.770641,0.690739 z m 4.264967,-5.00587 c 2.955708,-1.461425 2.848002,-5.702696 -0.179939,-7.085715 -1.436036,-0.655912 -3.041132,-0.331355 -4.172924,0.843785 -1.22797,1.275002 -1.472278,2.930975 -0.669944,4.541049 0.532758,1.069105 1.22853,1.633747 2.402678,1.949852 0.904895,0.243617 1.794925,0.159044 2.620129,-0.248971 z"
       id="path25" /><path
       style="fill:#1a1a1a;stroke-width:0.680084"
       d="M 41.216014,90.47099 C 35.909974,88.661785 33.5837,82.878579 36.13524,77.839988 c 0.567684,-1.121021 2.367253,-2.913356 3.56892,-3.554574 2.556059,-1.363929 5.736992,-1.375247 8.39199,-0.02985 1.107818,0.561374 2.887884,2.209617 3.483346,3.225388 2.418183,4.125062 1.159415,9.36852 -2.878883,11.992124 -2.197068,1.427397 -5.092745,1.813477 -7.484599,0.997921 z m 3.651274,-4.69722 c 1.210716,-0.364372 1.918574,-0.94925 2.399902,-1.982957 1.796458,-3.858091 -2.520103,-7.426416 -5.755366,-4.757727 -2.392993,1.973921 -1.45412,6.10032 1.550127,6.812899 0.852162,0.202124 0.900157,0.200205 1.805337,-0.07221 z"
       id="path24" /><path
       style="fill:#1a1a1a;stroke-width:0.680084"
       d="m 131.94257,114.25308 c -2.85851,-0.76926 -5.01567,-3.25358 -5.72732,-6.59596 -0.33118,-1.55541 -0.23654,-4.80058 0.17778,-6.09645 0.79763,-2.494737 2.31179,-4.267297 4.55537,-5.332767 1.19821,-0.56903 1.60903,-0.67021 2.98919,-0.73619 1.99536,-0.0954 3.49552,0.27705 4.97972,1.23633 1.71476,1.10831 2.94179,2.85734 3.53668,5.041247 0.39105,1.43557 0.4414,4.70175 0.0941,6.10713 -1.02147,4.13407 -4.23845,6.68464 -8.38233,6.6459 -0.69671,-0.007 -1.69717,-0.12767 -2.22324,-0.26924 z m 4.10584,-4.67384 c 0.63427,-0.319 1.00356,-0.77034 1.47227,-1.79936 0.33423,-0.73375 0.4077,-1.21422 0.41174,-2.69251 0.005,-2.05045 -0.22224,-2.88278 -1.04596,-3.82096 -1.34584,-1.532817 -3.57513,-1.526987 -4.92717,0.0129 -1.7917,2.04063 -1.34557,7.13441 0.72215,8.24539 0.95613,0.51372 2.40724,0.53723 3.36697,0.0545 z"
       id="path23" /><path
       style="fill:#1a1a1a;stroke-width:0.680084"
       d="m 109.5293,114.26907 c -2.47878,-0.7933 -4.51263,-2.96286 -5.37846,-5.73734 -0.52285,-1.6754 -0.55584,-5.03919 -0.0653,-6.65753 0.96737,-3.191417 2.79522,-5.204127 5.48538,-6.040127 2.02542,-0.62943 4.55574,-0.35842 6.32335,0.67726 1.82688,1.07042 3.40918,3.38078 3.96427,5.788327 0.28891,1.25306 0.29202,3.94356 0.006,5.3249 -0.56964,2.75264 -2.38373,5.11314 -4.79766,6.24275 -1.03264,0.48323 -1.4439,0.57056 -2.93078,0.62233 -1.21668,0.0424 -1.98976,-0.023 -2.60696,-0.22057 z m 3.96193,-4.71959 c 0.64994,-0.34969 1.30143,-1.2662 1.58943,-2.23602 0.52103,-1.7545 0.24033,-4.59769 -0.57709,-5.84523 -0.43826,-0.66887 -1.68446,-1.31114 -2.54401,-1.31114 -2.23357,0 -3.62217,1.89699 -3.62217,4.94832 0,2.12175 0.71233,3.82095 1.86378,4.44588 0.87747,0.47623 2.40312,0.47539 3.29006,-0.002 z"
       id="path22" /><path
       style="fill:#1a1a1a;stroke-width:0.680084"
       d="m 87.418753,114.37825 c -1.216487,-0.30845 -2.366128,-1.01957 -3.397197,-2.10138 -1.895211,-1.98847 -2.571643,-3.90364 -2.561421,-7.2521 0.0061,-1.94727 0.07141,-2.4425 0.48762,-3.68875 0.612892,-1.835187 1.558617,-3.194377 2.971165,-4.270157 4.521635,-3.44361 10.617049,-0.92198 12.159439,5.030277 0.17283,0.66699 0.28275,1.85201 0.28275,3.04819 0,4.21316 -1.54717,7.12193 -4.587346,8.62447 -1.142821,0.56481 -1.485603,0.64627 -2.985284,0.7094 -0.931817,0.0392 -1.998196,-0.005 -2.369726,-0.1 z m 3.658594,-4.90428 c 0.333921,-0.22503 0.786538,-0.67537 1.005817,-1.00076 1.196527,-1.77552 0.904002,-5.82096 -0.533866,-7.38306 -0.904321,-0.98246 -2.681775,-1.227077 -3.739041,-0.51459 -1.243024,0.83768 -1.819014,2.20661 -1.83418,4.35924 -0.02299,3.25859 1.151627,4.92331 3.486098,4.94078 0.759239,0.005 1.15789,-0.0934 1.615172,-0.40161 z"
       id="path21" /><path
       style="fill:#1a1a1a;stroke-width:0.680084"
       d="m 64.537431,114.83692 c -0.05282,-0.0855 -0.07784,-4.55919 -0.0556,-9.94163 l 0.04043,-9.786227 2.114282,-0.0507 2.114282,-0.0507 v 9.992317 9.99231 h -2.05868 c -1.132273,0 -2.101894,-0.0699 -2.154715,-0.15538 z"
       id="path20" /><path
       style="fill:#1a1a1a;stroke-width:0.680084"
       d="m 41.759986,105 v -9.986607 h 2.159267 2.159267 V 105 v 9.98661 h -2.159267 -2.159267 z"
       id="path19" /><path
       style="fill:#1a1a1a;stroke-width:0.680084"
       d="m 64.43229,136.6337 c -4.049967,-1.07498 -6.65774,-4.45159 -6.65774,-8.62061 0,-4.47673 3.126998,-8.08059 7.584726,-8.74136 6.541438,-0.96966 11.836873,5.37867 9.690488,11.61726 -1.469677,4.27169 -6.306828,6.88889 -10.617474,5.74471 z m 4.21454,-5.3373 c 2.527937,-1.71778 2.333387,-5.49512 -0.349926,-6.79408 -1.139685,-0.55172 -2.797925,-0.45539 -3.821522,0.222 -1.892829,1.25262 -2.205859,4.2726 -0.618348,5.96556 1.194849,1.27422 3.396844,1.55305 4.789796,0.60652 z"
       id="path18" /><path
       style="fill:#1a1a1a;stroke-width:0.680084"
       d="m 42.139357,136.74657 c -2.7749,-0.54496 -5.553103,-2.9661 -6.536807,-5.69667 -0.455702,-1.26494 -0.6159,-3.60539 -0.336087,-4.91011 0.962324,-4.48716 5.6233,-7.64374 10.104245,-6.84296 2.510252,0.44861 4.930118,2.06165 6.17314,4.11489 1.734225,2.86462 1.67871,6.62311 -0.139815,9.46592 -1.875648,2.9321 -5.764875,4.55625 -9.264676,3.86893 z m 3.698345,-5.37973 c 2.507954,-1.4384 2.486988,-5.33753 -0.03657,-6.80183 -0.59545,-0.3455 -0.921893,-0.40443 -1.990345,-0.35924 -1.060255,0.0448 -1.404237,0.14148 -2.018355,0.56706 -1.469514,1.01838 -2.067839,3.24757 -1.310035,4.88084 0.984014,2.1208 3.333879,2.87253 5.355309,1.71317 z"
       id="path17" /><path
       style="fill:#1a1a1a;stroke-width:0.680084"
       d="m 132.07295,137.28366 c -2.43894,-0.78032 -4.27169,-2.77352 -5.22893,-5.68672 -0.35027,-1.06598 -0.41181,-1.61908 -0.40046,-3.59877 0.0118,-2.04609 0.0744,-2.51959 0.50011,-3.77872 1.10615,-3.27176 3.238,-5.15324 6.40829,-5.65568 5.13429,-0.8137 9.18231,3.34356 9.1707,9.4182 -0.007,3.86938 -1.26742,6.59479 -3.88048,8.39341 -1.74701,1.20249 -4.47206,1.57927 -6.56923,0.90828 z m 3.5735,-4.43573 c 1.59635,-0.667 2.23982,-1.83048 2.34515,-4.2403 0.094,-2.15124 -0.24327,-3.46865 -1.14302,-4.46457 -0.81104,-0.89772 -1.46817,-1.15703 -2.67788,-1.05671 -1.78659,0.14816 -2.86356,1.46623 -3.1711,3.88103 -0.17245,1.35404 0.0451,3.19012 0.48878,4.1251 0.79709,1.67973 2.55901,2.42358 4.15807,1.75545 z"
       id="path16" /><path
       style="fill:#1a1a1a;stroke-width:0.680084"
       d="m 109.95684,128.03788 v -9.98661 h 2.0693 2.06929 v 9.98661 9.98661 h -2.06929 -2.0693 z"
       id="path15" /><path
       style="fill:#1a1a1a;stroke-width:0.680084"
       d="m 87.284538,128.03788 v -9.98661 h 2.159267 2.159268 v 9.98661 9.98661 h -2.159268 -2.159267 z"
       id="path14" /><g
       id="g30"
       transform="translate(20.588715,31.888679)"><path
         style="fill:#1a1a1a;stroke-width:0.606785"
         d="m 226.82483,78.886897 v -3.46653 l -2.97009,-5.680463 c -1.63354,-3.124249 -2.97008,-5.720644 -2.97008,-5.769757 0,-0.04909 0.88133,-0.06901 1.95851,-0.04423 l 1.9585,0.04508 1.9069,3.827385 c 1.04879,2.105057 1.932,3.802276 1.96268,3.771597 0.0307,-0.0307 0.92459,-1.753007 1.98647,-3.827385 l 1.93068,-3.771597 1.93939,-0.04514 1.9394,-0.04514 -0.50665,1.008391 c -0.27865,0.554613 -1.61736,3.152738 -2.9749,5.77361 l -2.46827,4.765232 v 3.462707 3.462707 h -1.84627 -1.84627 z"
         id="path13" /><path
         style="fill:#1a1a1a;stroke-width:0.606785"
         d="m 206.11451,73.107808 v -9.24562 l 4.77622,0.06256 c 4.47109,0.05855 4.83364,0.08527 5.67502,0.418068 2.00799,0.794233 3.02833,2.590406 3.03265,5.33854 0.004,2.47704 -0.88984,4.192323 -2.64709,5.080455 -0.4415,0.223139 -0.82255,0.422857 -0.84678,0.443821 -0.0242,0.02093 0.23606,0.499924 0.57841,1.064367 0.34235,0.564437 1.21726,2.164115 1.94423,3.554835 l 1.32177,2.528587 h -2.01899 -2.01899 l -0.48862,-1.083681 c -0.26874,-0.59602 -1.08031,-2.149298 -1.80347,-3.451718 l -1.31485,-2.368038 h -1.32876 -1.32876 v 3.451719 3.451718 h -1.76599 -1.766 z m 8.78112,-1.182751 c 0.81445,-0.496599 1.09426,-1.058445 1.07943,-2.16741 -0.0148,-1.106351 -0.34408,-1.872034 -0.9862,-2.29327 -0.35247,-0.231215 -0.87619,-0.292361 -2.88647,-0.337014 l -2.45589,-0.05455 v 2.58313 2.583131 l 2.36804,-6.01e-4 c 2.06397,-5.21e-4 2.43392,-0.04078 2.88109,-0.313422 z"
         id="path12" /><path
         style="fill:#1a1a1a;stroke-width:0.606785"
         d="m 187.21274,82.152739 c 0.0423,-0.110374 0.70577,-2.151306 1.47441,-4.535399 0.76863,-2.384093 2.08108,-6.447894 2.91657,-9.03066 l 1.51906,-4.695943 h 2.37236 2.37236 l 1.87646,5.739485 c 1.03205,3.156718 2.37353,7.313041 2.98106,9.236275 l 1.10462,3.49679 -1.8648,-0.04508 -1.86479,-0.04508 -0.63359,-2.127223 -0.6336,-2.127223 h -3.33043 -3.33044 l -0.16398,0.521774 c -0.0902,0.286973 -0.39038,1.262282 -0.6671,2.167356 l -0.50311,1.645588 h -1.85098 c -1.41476,0 -1.83286,-0.04727 -1.77408,-0.200682 z m 10.55343,-7.432626 c 0,-0.04824 -0.46959,-1.647984 -1.04355,-3.555011 -0.57394,-1.907027 -1.04354,-3.565333 -1.04354,-3.685125 0,-0.119785 -0.0542,-0.217216 -0.12041,-0.216506 -0.0999,0.0012 -0.75143,2.009864 -2.22564,6.862011 l -0.20731,0.682318 h 2.32022 c 1.27613,0 2.32023,-0.03944 2.32023,-0.08769 z"
         id="path11" /><path
         style="fill:#1a1a1a;stroke-width:0.606785"
         d="m 171.74448,82.28659 c -0.0368,-0.03677 -0.0477,-4.190867 -0.0242,-9.231348 l 0.0427,-9.164505 2.04435,0.0018 2.04435,0.0018 0.26393,0.600413 c 0.53641,1.22025 5.5794,11.795238 5.66639,11.882226 0.0496,0.04958 0.0901,-2.73948 0.0901,-6.197892 v -6.288012 h 1.68573 1.68572 v 9.231342 9.231342 h -1.92851 -1.92851 l -2.37095,-4.776214 c -1.30402,-2.626922 -2.69386,-5.462548 -3.08852,-6.301397 l -0.71758,-1.525178 -0.042,6.301392 -0.042,6.301397 h -1.6571 c -0.91141,0 -1.68721,-0.0301 -1.724,-0.06683 z"
         id="path10" /><path
         style="fill:#1a1a1a;stroke-width:0.606785"
         d="m 156.66662,80.749926 v -1.607409 h 2.16736 2.16736 v -6.020438 -6.020444 h -2.16736 -2.16736 v -1.605449 -1.605449 h 5.94017 5.94017 v 1.605449 1.605449 h -2.08904 -2.08904 l 0.0421,5.980305 0.0421,5.980306 2.13297,0.04484 2.13298,0.04484 -0.0459,1.56062 -0.0459,1.560614 -5.9803,0.04211 -5.98031,0.04211 z"
         id="path9" /><path
         style="fill:#1a1a1a;stroke-width:0.606785"
         d="m 139.32775,73.106388 v -9.247034 l 4.85649,0.07082 c 5.34535,0.07796 5.88275,0.159924 7.1721,1.093924 1.87342,1.357098 2.06787,4.977266 0.36492,6.793724 -0.2381,0.253958 -0.71303,0.589667 -1.05541,0.746023 l -0.62251,0.284279 0.72788,0.321978 c 0.96401,0.426424 1.95595,1.472806 2.27005,2.394615 0.59592,1.748929 0.14452,3.970501 -1.04934,5.164362 -1.31956,1.319556 -2.89765,1.616674 -8.61041,1.621159 l -4.05377,0.003 z m 9.11804,5.66539 c 0.76016,-0.412547 1.15553,-1.148504 1.15625,-2.152259 5e-4,-0.701795 -0.0773,-0.926008 -0.4809,-1.385678 -0.64537,-0.735028 -1.42234,-0.907677 -4.08485,-0.907677 h -2.17654 v 2.422285 2.422278 l 2.52858,-0.05595 c 2.04954,-0.04539 2.62878,-0.110344 3.05746,-0.342991 z m -0.36669,-7.727123 c 1.46204,-0.61088 1.61914,-2.988596 0.24443,-3.699481 -0.36171,-0.187053 -1.04994,-0.243539 -2.96736,-0.243539 h -2.49642 v 2.08709 2.087085 h 2.33306 c 1.6673,0 2.49093,-0.06596 2.88629,-0.231155 z"
         id="path8" /></g><g
       id="g29"
       transform="translate(20.588715,31.619621)"><path
         style="fill:#1a1a1a;stroke-width:0.606785"
         d="m 173.88077,99.009974 c 1.14394,-3.554065 2.45746,-7.617865 2.91894,-9.03066 l 0.83904,-2.568725 2.33058,-0.0443 2.33058,-0.0443 0.4871,1.489177 c 2.22707,6.808554 5.34646,16.466764 5.34646,16.553614 0,0.0589 -0.81433,0.10708 -1.80962,0.10708 h -1.80962 l -0.64113,-2.04696 -0.64112,-2.04695 -3.22132,-0.0434 -3.22131,-0.0434 -0.58948,1.88965 c -0.32422,1.0393 -0.58936,1.97995 -0.58921,2.09032 2.1e-4,0.14929 -0.4876,0.20068 -1.90475,0.20068 h -1.90502 z m 7.48944,-4.013625 c -0.52034,-1.699774 -1.02919,-3.361878 -1.13076,-3.693577 -0.10158,-0.331693 -0.20441,-0.583363 -0.2285,-0.559261 -0.0589,0.05892 -2.31292,7.118839 -2.31292,7.244468 0,0.05437 1.03911,0.09886 2.30914,0.09886 h 2.30913 z"
         id="path7" /><path
         style="fill:#1a1a1a;stroke-width:0.606785"
         d="m 156.82717,96.397038 v -9.095264 l 4.77622,0.06752 c 3.87792,0.05485 4.92979,0.117601 5.5928,0.33378 2.04282,0.66608 2.85963,1.908781 2.86796,4.363321 0.004,1.307609 -0.0407,1.52789 -0.47519,2.318215 -0.33645,0.612021 -0.70886,1.01586 -1.24472,1.349762 l -0.76462,0.476453 0.78254,0.446927 c 1.50575,0.859972 2.14543,1.989374 2.17339,3.837258 0.0258,1.70838 -0.28844,2.64986 -1.18333,3.54475 -1.27359,1.27359 -1.56586,1.32847 -7.42774,1.39484 l -5.09731,0.0577 z m 8.93974,5.712522 c 1.09961,-0.49924 1.49445,-1.82263 0.93982,-3.150022 -0.39987,-0.957039 -1.16562,-1.186076 -3.97953,-1.190262 l -2.36804,-0.0036 v 2.327904 2.3279 l 2.36804,-0.004 c 1.97838,-0.003 2.47856,-0.0537 3.03971,-0.30847 z m -0.26505,-7.637704 c 0.61178,-0.316365 0.95801,-1.00603 0.95801,-1.908295 0,-1.757673 -0.5352,-2.066447 -3.73267,-2.153448 l -2.36804,-0.06443 v 2.184855 2.184861 h 2.33588 c 1.77391,0 2.44917,-0.05862 2.80682,-0.243539 z"
         id="path6" /><path
         style="fill:#1a1a1a;stroke-width:0.606785"
         d="m 138.84675,104.54878 c 0.16537,-0.50772 1.42588,-4.42703 2.80114,-8.709571 1.37526,-4.28254 2.57021,-7.948988 2.65545,-8.147661 0.15049,-0.350776 0.22206,-0.361231 2.47314,-0.361231 h 2.31816 l 0.4048,1.244224 c 0.81861,2.516081 3.47697,10.800147 4.36624,13.606199 0.5037,1.58939 0.95036,2.98012 0.99256,3.09049 0.0586,0.15333 -0.35674,0.20068 -1.76013,0.20068 h -1.83688 l -0.63957,-2.04695 -0.63958,-2.04695 -3.23412,-0.0434 -3.23413,-0.0434 -0.66513,2.09039 -0.66512,2.09039 h -1.81875 -1.81875 z m 10.05772,-6.742897 c -0.0427,-0.154524 -0.51716,-1.731193 -1.05436,-3.503708 -0.53721,-1.772515 -0.97674,-3.322182 -0.97674,-3.443691 0,-0.582282 -0.36066,0.342421 -1.28513,3.294999 -0.55295,1.765998 -1.06617,3.373455 -1.1405,3.572128 l -0.13514,0.361231 h 2.33475 c 2.14611,0 2.32848,-0.02269 2.25712,-0.280959 z"
         id="path5" /><path
         style="fill:#1a1a1a;stroke-width:0.606785"
         d="m 226.85313,105.6212 c -2.49974,-0.49194 -4.63767,-2.58671 -4.94506,-4.84525 l -0.10378,-0.7626 h 1.86809 c 1.85428,0 1.86809,0.003 1.86809,0.37763 0,0.50658 0.61206,1.38634 1.20463,1.73151 1.02709,0.59828 3.55818,0.68268 4.55024,0.15174 1.46406,-0.78354 1.53834,-2.934596 0.1245,-3.605505 -0.5632,-0.267259 -1.56978,-0.502715 -4.1931,-0.980837 -1.71857,-0.313229 -2.69894,-0.718288 -3.42579,-1.415429 -1.58585,-1.521021 -2.01927,-4.099861 -1.03864,-6.179949 1.02336,-2.170748 4.07664,-3.403777 7.29985,-2.947954 3.00367,0.424773 4.9742,2.167301 5.22762,4.62277 l 0.0889,0.860955 h -1.69032 -1.69032 l -0.10266,-0.547289 c -0.12749,-0.679551 -0.93347,-1.490312 -1.69064,-1.700654 -0.91428,-0.253994 -2.43002,-0.193819 -3.04737,0.120969 -0.83064,0.42356 -1.19697,1.024246 -1.19697,1.962723 0,0.626518 0.0851,0.891798 0.3921,1.221755 0.53209,0.571943 0.82377,0.667512 3.61848,1.185615 2.77032,0.513576 3.60294,0.831416 4.61021,1.759888 1.07029,0.986552 1.46948,2.012237 1.47254,3.783432 0.002,1.30187 -0.0444,1.52943 -0.47055,2.29882 -0.79699,1.43874 -2.15485,2.36946 -4.13957,2.8374 -1.08347,0.25545 -3.46423,0.29188 -4.59044,0.0703 z"
         id="path4" /><path
         style="fill:#1a1a1a;stroke-width:0.606785"
         d="m 210.32893,105.54492 c -2.38123,-0.64122 -3.75091,-2.12423 -4.21319,-4.56182 -0.0917,-0.48351 -0.16177,-3.625321 -0.16177,-7.252916 v -6.399891 h 1.76599 1.766 v 6.426959 c 0,5.420492 0.0386,6.519508 0.24694,7.017978 0.55377,1.32534 1.52632,1.8659 3.2046,1.78115 1.38158,-0.0698 2.26578,-0.56118 2.74449,-1.52529 0.28346,-0.57089 0.30939,-1.099149 0.35135,-7.158585 l 0.0453,-6.542212 h 1.76083 1.76084 l -0.001,6.140848 c -6e-4,3.490571 -0.0736,6.591229 -0.16897,7.184399 -0.20136,1.25255 -0.72571,2.45851 -1.40571,3.23298 -0.61828,0.70418 -2.07886,1.49018 -3.20822,1.72646 -1.15745,0.24216 -3.46135,0.20619 -4.48725,-0.0701 z"
         id="path3" /><path
         style="fill:#1a1a1a;stroke-width:0.606785"
         d="m 194.07752,105.53563 c -2.30462,-0.61931 -3.87247,-2.39643 -4.42847,-5.01957 -0.27006,-1.274094 -0.30964,-6.176738 -0.0624,-7.727206 0.5775,-3.621369 3.07798,-5.655985 6.97542,-5.675827 3.9713,-0.02021 6.36015,1.841774 6.76326,5.271612 l 0.10412,0.885851 h -1.70477 -1.70477 l -0.0964,-0.441503 c -0.18942,-0.867696 -0.43867,-1.332772 -0.95929,-1.789875 -0.70085,-0.615358 -1.53174,-0.871015 -2.55504,-0.786156 -1.73557,0.143929 -2.79863,1.188515 -3.15263,3.097805 -0.10666,0.575262 -0.15313,2.127284 -0.11538,3.853082 0.0682,3.118657 0.15579,3.484017 1.07118,4.468937 0.55049,0.5923 0.80896,0.72369 1.78957,0.90966 1.67108,0.31691 3.11696,-0.35146 3.72272,-1.72089 l 0.30416,-0.68762 h 1.68904 c 1.5317,0 1.68166,0.0262 1.60992,0.28095 -0.0435,0.15452 -0.12831,0.53381 -0.18845,0.84286 -0.27221,1.399 -1.32735,2.88723 -2.5658,3.61894 -1.3985,0.82628 -4.59212,1.13058 -6.49601,0.61895 z"
         id="path2" /></g><rect
       style="fill:#1a1a1a;stroke-width:0.212573"
       id="rect1"
       width="223.49495"
       height="2.5243363"
       x="33.560955"
       y="145.17097" /><rect
       style="fill:#1a1a1a;stroke-width:0.212572"
       id="rect28"
       width="223.49495"
       height="2.5243363"
       x="33.560955"
       y="61.061718" /><circle
       style="fill:#1a1a1a;stroke-width:0.264583"
       id="circle30"
       cx="245.60791"
       cy="85.95134"
       r="2.5" /><circle
       style="fill:#1a1a1a;stroke-width:0.264583"
       id="circle32"
       cx="131.04037"
       cy="85.95134"
       r="2.5" /><circle
       style="fill:#1a1a1a;stroke-width:0.264583"
       id="circle33"
       cx="163.77396"
       cy="85.95134"
       r="2.5" /><circle
       style="fill:#1a1a1a;stroke-width:0.264583"
       id="circle34"
       cx="180.14075"
       cy="85.95134"
       r="2.5" /><circle
       style="fill:#1a1a1a;stroke-width:0.264583"
       id="circle35"
       cx="196.50754"
       cy="85.95134"
       r="2.5" /><circle
       style="fill:#1a1a1a;stroke-width:0.264583"
       id="circle36"
       cx="212.87433"
       cy="85.95134"
       r="2.5" /><circle
       style="fill:#1a1a1a;stroke-width:0.264583"
       id="circle39"
       cx="229.24112"
       cy="85.95134"
       r="2.5" /></g></svg>
